<svg width="182" height="55" viewBox="0 0 182 55" fill="none" xmlns="http://www.w3.org/2000/svg">
<path d="M9.19642 24.441C9.74741 23.1423 9.14121 21.6427 7.84243 21.0917C6.54365 20.5407 5.04412 21.1469 4.49312 22.4457L9.19642 24.441ZM112.371 20.8915L111.964 23.4134L112.371 20.8915ZM143.336 30.9551L144.967 32.921L143.336 30.9551ZM181.513 13.4668C182.115 12.1909 181.569 10.6685 180.293 10.0663L159.502 0.252669C158.227 -0.349542 156.704 0.196538 156.102 1.47238C155.5 2.74821 156.046 4.27067 157.322 4.87289L175.802 13.5961L167.079 32.077C166.477 33.3528 167.023 34.8753 168.299 35.4775C169.575 36.0797 171.097 35.5336 171.699 34.2578L181.513 13.4668ZM4.49312 22.4457C1.41592 29.6992 0.0748042 35.4399 0.565348 39.8187C0.817274 42.0675 1.56082 44.0299 2.86192 45.614C4.16165 47.1966 5.88094 48.2352 7.81186 48.8639C11.563 50.0853 16.3847 49.8476 21.5926 48.9101C26.8776 47.9588 32.9254 46.2138 39.3191 44.0932C45.7219 41.9697 52.557 39.4403 59.4143 36.8988C66.2886 34.351 73.1878 31.7899 79.7871 29.5732C86.3907 27.3551 92.6284 25.5044 98.1695 24.3663C103.75 23.2201 108.419 22.8416 111.964 23.4134L112.778 18.3695C108.324 17.6511 102.938 18.1711 97.1416 19.3617C91.3056 20.5604 84.8442 22.485 78.1603 24.7301C71.472 26.9767 64.4952 29.567 57.6387 32.1082C50.7652 34.6557 44.0147 37.1532 37.7108 39.2439C31.3979 41.3377 25.6178 42.9944 20.6875 43.8819C15.6801 44.7833 11.899 44.8217 9.39362 44.0059C8.19625 43.616 7.3738 43.0578 6.81005 42.3714C6.24766 41.6867 5.80597 40.708 5.64263 39.2499C5.30263 36.215 6.21082 31.4786 9.19642 24.441L4.49312 22.4457ZM111.964 23.4134C131.996 26.6443 146.265 30.3362 153.552 34.4957C157.278 36.6226 158.363 38.4053 158.447 39.6095C158.529 40.8012 157.722 42.8246 153.925 45.6874L157.001 49.7665C161.075 46.6944 163.816 43.2023 163.543 39.2575C163.272 35.3253 160.1 32.3505 156.085 30.0586C147.889 25.3806 132.742 21.5896 112.778 18.3695L111.964 23.4134ZM153.925 45.6874C150.308 48.4154 147.432 49.146 145.43 48.983C143.496 48.8256 142.054 47.8172 141.155 46.2779C139.302 43.1042 139.709 37.2839 144.967 32.921L141.705 28.9893C134.835 34.69 133.436 43.1905 136.743 48.8542C138.425 51.7337 141.305 53.7732 145.015 54.0752C148.657 54.3717 152.749 52.9734 157.001 49.7665L153.925 45.6874ZM144.967 32.921C149.578 29.0951 156.344 25.2668 163.056 22.0092C169.733 18.768 176.19 16.1711 180.065 14.7809L178.341 9.97185C174.303 11.42 167.677 14.087 160.825 17.4129C154.007 20.7223 146.796 24.7642 141.705 28.9893L144.967 32.921Z" fill="url(#paint0_linear_258_621)"/>
<defs>
<linearGradient id="paint0_linear_258_621" x1="-130.275" y1="76.5358" x2="174.373" y2="42.1244" gradientUnits="userSpaceOnUse">
<stop stop-color="#FFF278"/>
<stop offset="1" stop-color="#F28D2F"/>
</linearGradient>
</defs>
</svg>
