<svg width="104" height="103" viewBox="0 0 104 103" fill="none" xmlns="http://www.w3.org/2000/svg">
<g filter="url(#filter0_dd_425_15)">
<rect x="10" y="0.0737305" width="84" height="84" rx="20" fill="#84CC16" shape-rendering="crispEdges"/>
<path d="M52 68.0737C51.1481 68.074 50.3111 67.8895 49.5733 67.5389L41.851 63.7744C40.6985 63.2432 41.2601 63.0557 41.6412 62.9461C42.867 62.6343 44.0406 62.1975 45.1348 61.6461C45.2264 61.6112 45.3272 61.5961 45.4279 61.6023C45.5285 61.6085 45.6256 61.6357 45.7099 61.6814L51.6437 64.5841C51.7542 64.6322 51.8773 64.6574 52.0023 64.6574C52.1273 64.6574 52.2504 64.6322 52.3609 64.5841L75.5006 53.586C75.6089 53.5325 75.6985 53.4569 75.7605 53.3664C75.8226 53.2758 75.855 53.1736 75.8547 53.0697V31.0696C75.8548 30.9641 75.8218 30.8602 75.759 30.7682C75.6962 30.6761 75.6056 30.5989 75.4961 30.5441L52.3564 19.5552C52.2472 19.5046 52.1241 19.478 51.9989 19.478C51.8736 19.478 51.7505 19.5046 51.6414 19.5552L28.5152 30.5478C28.4049 30.6015 28.3133 30.6778 28.2493 30.7692C28.1853 30.8606 28.151 30.9641 28.1498 31.0696V53.0604C28.1501 53.1641 28.1839 53.2659 28.2477 53.3553C28.3115 53.4447 28.4031 53.5185 28.5129 53.5692L34.8595 56.5853C38.2988 58.0004 40.4053 56.3327 40.4053 54.6575V32.9454C40.4053 32.7976 40.4766 32.6559 40.6035 32.5514C40.7304 32.4469 40.9025 32.3882 41.0819 32.3882H44.0139C44.1933 32.3882 44.3654 32.4469 44.4923 32.5514C44.6192 32.6559 44.6905 32.7976 44.6905 32.9454V54.6594C44.6905 58.4387 42.1916 60.6023 37.8388 60.6023C35.9609 60.6293 34.1125 60.2157 32.5094 59.41L26.4268 56.537C25.6883 56.1829 25.0756 55.6755 24.6498 55.0654C24.224 54.4554 23.9999 53.764 24 53.0604V31.0696C23.9978 30.3649 24.2209 29.6721 24.6469 29.0609C25.0729 28.4496 25.6867 27.9415 26.4268 27.5875L49.5688 16.5856C50.3142 16.2498 51.1503 16.0737 52 16.0737C52.8497 16.0737 53.6858 16.2498 54.4313 16.5856L77.571 27.5875C78.3093 27.9409 78.9222 28.4475 79.3484 29.0569C79.7746 29.6663 79.9993 30.3571 80 31.0604V53.0604C79.9987 53.764 79.7739 54.4551 79.3477 55.065C78.9216 55.675 78.3091 56.1824 77.571 56.537L54.4313 67.5389C53.692 67.8901 52.8534 68.0746 52 68.0737V68.0737Z" fill="white"/>
<path d="M47.6102 45.7016C47.6102 45.5538 47.6815 45.4121 47.8083 45.3076C47.9352 45.2031 48.1073 45.1444 48.2868 45.1444H51.2796C51.4395 45.1448 51.5941 45.1919 51.7159 45.2772C51.8377 45.3625 51.9188 45.4806 51.9449 45.6106C52.396 48.1196 53.7492 49.3843 59.8679 49.3843C64.7417 49.3843 66.8189 48.4762 66.8189 46.346C66.8189 45.1184 66.2302 44.2065 58.6545 43.5955C52.3216 43.0792 48.4063 41.9241 48.4063 37.7566C48.4063 33.9123 52.3419 31.6187 58.9387 31.6187C66.352 31.6187 70.0214 33.7377 70.486 38.284C70.4931 38.3599 70.4813 38.4362 70.4512 38.5082C70.4211 38.5802 70.3734 38.6463 70.311 38.7025C70.2487 38.7587 70.173 38.8038 70.0887 38.835C70.0043 38.8662 69.9131 38.8828 69.8207 38.8839H66.8076C66.6564 38.8822 66.5103 38.8388 66.3926 38.7607C66.2749 38.6826 66.1923 38.5743 66.158 38.453C65.4386 35.814 63.6772 34.9708 58.941 34.9708C53.6184 34.9708 53.0004 36.4974 53.0004 37.6414C53.0004 39.0269 53.7311 39.4318 60.9166 40.2136C68.0277 40.9881 71.4062 42.0838 71.4062 46.1993C71.4062 50.3519 67.2023 52.7291 59.8702 52.7291C49.7324 52.7402 47.6102 48.9126 47.6102 45.7016V45.7016Z" fill="white"/>
</g>
<defs>
<filter id="filter0_dd_425_15" x="0.87904" y="0.0737305" width="102.242" height="102.242" filterUnits="userSpaceOnUse" color-interpolation-filters="sRGB">
<feFlood flood-opacity="0" result="BackgroundImageFix"/>
<feColorMatrix in="SourceAlpha" type="matrix" values="0 0 0 0 0 0 0 0 0 0 0 0 0 0 0 0 0 0 127 0" result="hardAlpha"/>
<feOffset dy="9.12096"/>
<feGaussianBlur stdDeviation="4.56048"/>
<feComposite in2="hardAlpha" operator="out"/>
<feColorMatrix type="matrix" values="0 0 0 0 0.517647 0 0 0 0 0.8 0 0 0 0 0.0862745 0 0 0 0.2 0"/>
<feBlend mode="normal" in2="BackgroundImageFix" result="effect1_dropShadow_425_15"/>
<feColorMatrix in="SourceAlpha" type="matrix" values="0 0 0 0 0 0 0 0 0 0 0 0 0 0 0 0 0 0 127 0" result="hardAlpha"/>
<feOffset dy="9.12096"/>
<feGaussianBlur stdDeviation="4.56048"/>
<feComposite in2="hardAlpha" operator="out"/>
<feColorMatrix type="matrix" values="0 0 0 0 0.517647 0 0 0 0 0.8 0 0 0 0 0.0862745 0 0 0 0.1 0"/>
<feBlend mode="normal" in2="effect1_dropShadow_425_15" result="effect2_dropShadow_425_15"/>
<feBlend mode="normal" in="SourceGraphic" in2="effect2_dropShadow_425_15" result="shape"/>
</filter>
</defs>
</svg>
