<svg width="41" height="22" viewBox="0 0 41 22" fill="none" xmlns="http://www.w3.org/2000/svg">
<path d="M3.2392 21.2027H0.581421V6.90271H3.12364V9.2374H3.2392C3.50882 8.47863 4.05771 7.83659 4.88586 7.31128C5.73326 6.76651 6.56142 6.49414 7.37031 6.49414C8.14069 6.49414 8.79549 6.61087 9.33475 6.84434L8.52587 9.44169C8.19846 9.30549 7.67847 9.2374 6.96587 9.2374C5.96438 9.2374 5.08809 9.64598 4.33698 10.4631C3.60513 11.2803 3.2392 12.2336 3.2392 13.3231V21.2027ZM8.54753 16.8252C8.54753 17.5256 8.83642 18.1092 9.4142 18.5762C10.0112 19.0431 10.7046 19.2766 11.4942 19.2766C12.6112 19.2766 13.6031 18.8583 14.4698 18.0217C15.3557 17.1851 15.7986 16.2026 15.7986 15.0741C14.9705 14.4126 13.8149 14.0819 12.332 14.0819C11.2535 14.0819 10.3483 14.3445 9.61642 14.8699C8.90382 15.3952 8.54753 16.0469 8.54753 16.8252ZM11.9853 6.43577C13.9498 6.43577 15.5001 6.9708 16.6364 8.04087C17.7727 9.09149 18.3409 10.5409 18.3409 12.3892V21.2027H15.7986V19.2182H15.6831C14.5853 20.8525 13.1216 21.6696 11.292 21.6696C9.73198 21.6696 8.42235 21.2027 7.36309 20.2688C6.32309 19.335 5.80309 18.1676 5.80309 16.7668C5.80309 15.2881 6.35198 14.1111 7.44975 13.2356C8.5668 12.3601 10.0498 11.9223 11.8986 11.9223C13.4779 11.9223 14.7779 12.2141 15.7986 12.7978V12.185C15.7986 11.2511 15.4327 10.4631 14.7009 9.82108C13.969 9.15957 13.112 8.82883 12.1298 8.82883C10.6468 8.82883 9.47198 9.46115 8.60531 10.7258L6.26531 9.2374C7.55569 7.36965 9.46235 6.43577 11.9853 6.43577ZM23.9674 0.0737305C24.9303 0.0737305 25.7201 0.239104 26.3363 0.569854L25.6141 2.93373C25.1519 2.70026 24.6319 2.58353 24.0541 2.58353C23.3992 2.58353 22.8601 2.817 22.4363 3.28394C22.0319 3.73141 21.8296 4.33455 21.8296 5.09332V6.90271H25.5274V9.35414H21.8296V21.2027H19.1719V9.35414H16.5141V6.90271H19.1719V4.83067C19.1719 3.41039 19.6148 2.26251 20.5008 1.387C21.406 0.511487 22.5615 0.0737305 23.9674 0.0737305ZM22.4988 14.0527C22.4988 11.8542 23.1825 10.0351 24.5499 8.59536C25.9365 7.15564 27.6796 6.43577 29.7788 6.43577C31.8781 6.43577 33.6114 7.15564 34.9788 8.59536C36.3654 10.0351 37.0588 11.8542 37.0588 14.0527C37.0588 16.2707 36.3654 18.0898 34.9788 19.5101C33.6114 20.9498 31.8781 21.6696 29.7788 21.6696C27.6796 21.6696 25.9365 20.9498 24.5499 19.5101C23.1825 18.0703 22.4988 16.2512 22.4988 14.0527ZM25.1565 14.0527C25.1565 15.5897 25.5996 16.8349 26.4854 17.7882C27.3714 18.7416 28.4692 19.2182 29.7788 19.2182C31.0885 19.2182 32.1863 18.7416 33.0721 17.7882C33.9581 16.8349 34.401 15.5897 34.401 14.0527C34.401 12.5352 33.9581 11.2997 33.0721 10.3464C32.167 9.3736 31.0692 8.8872 29.7788 8.8872C28.4885 8.8872 27.3908 9.3736 26.4854 10.3464C25.5996 11.2997 25.1565 12.5352 25.1565 14.0527ZM40.4185 19.3933C40.4185 19.9381 40.2259 20.405 39.8408 20.7941C39.4748 21.1832 39.0125 21.3778 38.4541 21.3778C37.9148 21.3778 37.4525 21.1832 37.0674 20.7941C36.6823 20.405 36.4896 19.9381 36.4896 19.3933C36.4896 18.8291 36.6823 18.3622 37.0674 17.9925C37.4525 17.6034 37.9148 17.4088 38.4541 17.4088C39.0125 17.4088 39.4748 17.6034 39.8408 17.9925C40.2259 18.3622 40.4185 18.8291 40.4185 19.3933Z" fill="#F9FAFB"/>
</svg>
