<svg width="103" height="103" viewBox="0 0 103 103" fill="none" xmlns="http://www.w3.org/2000/svg">
<rect x="9.5" y="0.0737305" width="84" height="84" rx="20" fill="#EFF6FF"/>
<g filter="url(#filter0_dd_258_689)">
<rect x="9.5" y="0.0737305" width="84" height="84" rx="20" fill="#00618A" shape-rendering="crispEdges"/>
<path d="M18.8649 56.4441H21.0665V47.334L24.4749 55.2759C24.8771 56.2372 25.4276 56.5772 26.5071 56.5772C27.5868 56.5772 28.116 56.2372 28.5184 55.2759L31.9266 47.334V56.4441H34.1284V47.3489C34.1284 46.4616 33.7895 46.0326 33.0911 45.8109C31.4187 45.2637 30.2966 45.7369 29.7884 46.9201L26.4436 54.7581L23.2047 46.9201C22.7178 45.7369 21.5746 45.2637 19.9022 45.8109C19.2036 46.0326 18.8649 46.4616 18.8649 47.3489V56.4441Z" fill="white"/>
<path d="M35.9584 49.0283H38.1594V54.0473C38.1388 54.32 38.2429 54.9599 39.449 54.9799C40.0643 54.99 44.1979 54.9799 44.2365 54.9799V49.0039H46.4426C46.4528 49.0039 46.4404 57.1534 46.4406 57.1881C46.4528 59.198 44.0606 59.6346 42.9581 59.6683H36.0063V58.1164C36.0184 58.1164 42.9529 58.1178 42.9704 58.116C44.3874 57.9592 44.2201 57.2212 44.2199 56.9727V56.3677H39.5404C37.3632 56.3467 35.9768 55.351 35.9596 54.2056C35.9581 54.0994 36.0066 49.0785 35.9584 49.0283Z" fill="white"/>
<path d="M48.1401 56.4428H54.4697C55.2107 56.4428 55.9306 56.2802 56.5022 55.9991C57.4547 55.5408 57.9205 54.9198 57.9205 54.1061V52.4203C57.9205 51.7547 57.3913 51.1335 56.3539 50.7196C55.8034 50.4976 55.126 50.3794 54.4697 50.3794H51.8023C50.9133 50.3794 50.4899 50.0984 50.3841 49.4773C50.3628 49.4033 50.3628 49.344 50.3628 49.2702V48.2203C50.3628 48.1611 50.3628 48.1018 50.3841 48.0279C50.4899 47.5548 50.7229 47.4215 51.506 47.3476C51.5696 47.3476 51.6541 47.3327 51.7177 47.3327H58.0052V45.7949H51.8235C50.9344 45.7949 50.4686 45.854 50.0453 45.987C48.7328 46.416 48.1612 47.0963 48.1612 48.2795V49.6252C48.1612 50.6605 49.2833 51.5478 51.1672 51.7547C51.3791 51.7695 51.5907 51.7842 51.8023 51.7842H54.0886C54.1735 51.7842 54.2582 51.7842 54.3216 51.7991C55.0202 51.8584 55.3165 51.9913 55.5284 52.2576C55.6552 52.3905 55.6976 52.5238 55.6976 52.6717V54.0174C55.6976 54.1802 55.5918 54.3873 55.3803 54.5646C55.1896 54.7421 54.8721 54.8605 54.4486 54.8901C54.3639 54.8901 54.3005 54.9049 54.2158 54.9049H48.1401V56.4428Z" fill="#E48E00"/>
<path d="M71.6531 53.7661C71.6531 55.3484 72.775 56.2359 75.0403 56.4134C75.2518 56.4281 75.4637 56.4428 75.6753 56.4428H81.4124V54.9049H75.6329C74.3416 54.9049 73.8547 54.5646 73.8547 53.7513V45.7949H71.6531V53.7661Z" fill="#E48E00"/>
<path d="M59.324 53.8472V48.364C59.324 46.971 60.2575 46.1261 62.1029 45.8593C62.2939 45.8299 62.5062 45.8149 62.697 45.8149H66.8761C67.0881 45.8149 67.2793 45.8299 67.4914 45.8593C69.3369 46.1261 70.2703 46.971 70.2703 48.364V53.8472C70.2703 54.9773 69.8739 55.5822 68.9603 55.9764L71.129 58.0276H68.5727L66.8181 56.368L65.0518 56.4853H62.697C62.2939 56.4853 61.8698 56.4258 61.4029 56.2925C60.0029 55.8925 59.324 55.1218 59.324 53.8472ZM61.7004 53.7139C61.7004 53.7881 61.7215 53.8621 61.7427 53.951C61.87 54.5882 62.4427 54.9439 63.3125 54.9439H65.3127L63.4753 53.2058H66.0317L67.6342 54.7217C67.9294 54.5568 68.1238 54.3046 68.1917 53.9806C68.2128 53.9066 68.2128 53.8324 68.2128 53.7584V48.4974C68.2128 48.4382 68.2128 48.364 68.1917 48.2898C68.0643 47.6971 67.4915 47.3563 66.6431 47.3563H63.3125C62.3368 47.3563 61.7004 47.8009 61.7004 48.4974V53.7139Z" fill="#E48E00"/>
<path d="M82.1718 45.354C80.8185 45.3156 79.7847 45.4474 78.9009 45.838C78.6497 45.949 78.2492 45.9519 78.2083 46.2817C78.3463 46.4333 78.3677 46.6597 78.4774 46.8462C78.6885 47.204 79.0447 47.6835 79.3626 47.935C79.7099 48.2097 80.0679 48.5036 80.4403 48.7414C81.1026 49.1647 81.842 49.4063 82.4798 49.8303C82.8556 50.0802 83.229 50.3949 83.5957 50.677C83.7769 50.8164 83.8988 51.0332 84.1343 51.1205C84.1343 51.1072 84.1343 51.0938 84.1343 51.0803C84.0106 50.9152 83.9787 50.6881 83.865 50.5156C83.6984 50.341 83.5316 50.1662 83.3647 49.9914C82.8756 49.3111 82.2547 48.7136 81.5946 48.2172C81.0683 47.8213 79.8901 47.2865 79.6705 46.6446C79.6576 46.6311 79.645 46.6177 79.6319 46.6042C80.0052 46.5602 80.4422 46.4186 80.7866 46.322C81.3652 46.1594 81.8823 46.2014 82.4798 46.0397C82.7491 45.9591 83.0184 45.8782 83.2879 45.7977C83.2879 45.7438 83.2879 45.6903 83.2879 45.6364C82.9859 45.3116 82.7705 44.8819 82.4412 44.588C81.5795 43.8191 80.639 43.0509 79.6705 42.4104C79.1334 42.0551 78.4696 41.8242 77.9004 41.5232C77.7089 41.422 77.3725 41.3693 77.246 41.2006C76.947 40.8011 76.7841 40.2948 76.5535 39.8295C76.0704 38.8548 75.596 37.7902 75.1681 36.7648C74.8761 36.0655 74.6855 35.3759 74.3215 34.7485C72.5742 31.7382 70.6933 29.9212 67.7796 28.1352C67.1597 27.7554 66.4132 27.6054 65.6244 27.4094C65.2013 27.3826 64.7778 27.3556 64.3545 27.3287C64.0962 27.2156 63.8274 26.8843 63.5849 26.7238C62.6197 26.0849 60.1439 24.6951 59.429 26.5222C58.9776 27.6756 60.1036 28.801 60.5063 29.3854C60.7891 29.7954 61.151 30.255 61.3529 30.7161C61.4858 31.0191 61.5088 31.3229 61.6224 31.6436C61.9022 32.4334 62.1455 33.2927 62.5074 34.0227C62.6904 34.392 62.892 34.7811 63.1232 35.1115C63.265 35.3141 63.508 35.4034 63.5464 35.7164C63.3087 36.0648 63.2952 36.6057 63.1616 37.0471C62.5602 39.0343 62.787 41.5042 63.6619 42.9749C63.9304 43.4264 64.5627 44.3947 65.4321 44.0234C66.1926 43.6987 66.0227 42.6929 66.2402 41.8055C66.2894 41.6042 66.2593 41.4563 66.3556 41.3216C66.3556 41.3349 66.3556 41.3484 66.3556 41.3619C66.5865 41.8458 66.8175 42.3297 67.0484 42.8134C67.561 43.6786 68.4709 44.5828 69.2418 45.1929C69.6416 45.5092 69.9564 46.0563 70.4733 46.2413C70.4733 46.2278 70.4733 46.2145 70.4733 46.2009C70.4603 46.2009 70.4476 46.2009 70.4347 46.2009C70.3346 46.0372 70.1779 45.9695 70.05 45.838C69.7488 45.5286 69.414 45.144 69.1649 44.7896C68.4637 43.792 67.8439 42.7001 67.2793 41.5635C67.0097 41.0209 66.7753 40.4221 66.548 39.8699C66.4604 39.6569 66.4614 39.3349 66.2788 39.2246C66.0299 39.6293 65.6632 39.9565 65.4706 40.4344C65.1627 41.1983 65.1229 42.1298 65.0089 43.0958C64.9414 43.1212 64.9714 43.1037 64.9318 43.1361C64.3959 43.0006 64.2074 42.4225 64.0084 41.9265C63.5045 40.6721 63.4109 38.6523 63.8543 37.2085C63.969 36.835 64.4874 35.6583 64.2776 35.3132C64.1774 34.9688 63.8469 34.7697 63.6619 34.5066C63.433 34.1813 63.2045 33.7531 63.0461 33.3775C62.6338 32.3994 62.4412 31.3015 62.0072 30.3129C61.7997 29.8403 61.4488 29.362 61.1606 28.9419C60.8415 28.4764 60.4842 28.1336 60.237 27.5707C60.1491 27.3707 60.0296 27.0505 60.16 26.8449C60.2015 26.7061 60.26 26.6482 60.391 26.6029C60.6142 26.4226 61.2358 26.6629 61.4683 26.7642C62.0855 27.0328 62.6005 27.2885 63.1232 27.6514C63.3742 27.8257 63.628 28.1629 63.9313 28.2563C64.0466 28.2563 64.1622 28.2563 64.2776 28.2563C64.8193 28.3868 65.4262 28.2968 65.9323 28.4578C66.8269 28.7428 67.6286 29.1859 68.3567 29.6677C70.5748 31.1352 72.3883 33.2243 73.6289 35.7164C73.8284 36.1176 73.9148 36.5006 74.0906 36.9262C74.4453 37.7844 74.8921 38.6676 75.2449 39.5069C75.597 40.3442 75.9403 41.1893 76.438 41.8862C76.6998 42.2525 77.7104 42.449 78.1697 42.6523C78.4917 42.7949 79.0192 42.9435 79.3242 43.1361C79.9068 43.5044 80.4711 43.9427 81.0175 44.346C81.2906 44.5476 82.13 44.9897 82.1718 45.354Z" fill="white"/>
</g>
<defs>
<filter id="filter0_dd_258_689" x="0.37904" y="0.0737305" width="102.242" height="102.242" filterUnits="userSpaceOnUse" color-interpolation-filters="sRGB">
<feFlood flood-opacity="0" result="BackgroundImageFix"/>
<feColorMatrix in="SourceAlpha" type="matrix" values="0 0 0 0 0 0 0 0 0 0 0 0 0 0 0 0 0 0 127 0" result="hardAlpha"/>
<feOffset dy="9.12096"/>
<feGaussianBlur stdDeviation="4.56048"/>
<feComposite in2="hardAlpha" operator="out"/>
<feColorMatrix type="matrix" values="0 0 0 0 0 0 0 0 0 0.380392 0 0 0 0 0.541176 0 0 0 0.2 0"/>
<feBlend mode="normal" in2="BackgroundImageFix" result="effect1_dropShadow_258_689"/>
<feColorMatrix in="SourceAlpha" type="matrix" values="0 0 0 0 0 0 0 0 0 0 0 0 0 0 0 0 0 0 127 0" result="hardAlpha"/>
<feOffset dy="9.12096"/>
<feGaussianBlur stdDeviation="4.56048"/>
<feComposite in2="hardAlpha" operator="out"/>
<feColorMatrix type="matrix" values="0 0 0 0 0 0 0 0 0 0.380392 0 0 0 0 0.541176 0 0 0 0.2 0"/>
<feBlend mode="normal" in2="effect1_dropShadow_258_689" result="effect2_dropShadow_258_689"/>
<feBlend mode="normal" in="SourceGraphic" in2="effect2_dropShadow_258_689" result="shape"/>
</filter>
</defs>
</svg>
