<svg width="103" height="103" viewBox="0 0 103 103" fill="none" xmlns="http://www.w3.org/2000/svg">
<rect x="9.5" y="0.0737305" width="84" height="84" rx="20" fill="#F0F9FF"/>
<g filter="url(#filter0_dd_425_173)">
<rect x="9.5" y="0.0737305" width="84" height="84" rx="20" fill="#38BDF8" shape-rendering="crispEdges"/>
<path d="M79.5 42.0797C79.5 38.2115 74.8543 34.5457 67.7316 32.2724C69.3753 24.7027 68.6447 18.6803 65.4258 16.7521C64.6839 16.2999 63.8163 16.0856 62.8689 16.0856V18.7398C63.394 18.7398 63.8163 18.8469 64.1702 19.0492C65.7226 19.9776 66.396 23.5125 65.871 28.0591C65.7454 29.1779 65.54 30.3562 65.2888 31.5583C63.0516 30.987 60.6088 30.5466 58.0406 30.261C56.4996 28.0591 54.9016 26.0595 53.2921 24.3099C57.0133 20.7036 60.5061 18.7279 62.8804 18.7279V16.0737C59.7413 16.0737 55.6321 18.4065 51.4772 22.4532C47.3223 18.4303 43.213 16.1213 40.074 16.1213V18.7755C42.4368 18.7755 45.9411 20.7393 49.6623 24.3218C48.0642 26.0714 46.4662 28.0591 44.948 30.261C42.3683 30.5466 39.9256 30.987 37.6883 31.5702C37.4258 30.38 37.2318 29.2255 37.0948 28.1186C36.5583 23.572 37.2203 20.0371 38.7613 19.0968C39.1038 18.8826 39.5489 18.7874 40.074 18.7874V16.1332C39.1152 16.1332 38.2477 16.3475 37.4943 16.7998C34.2868 18.7279 33.5677 24.7384 35.2228 32.2843C28.1229 34.5695 23.5 38.2234 23.5 42.0797C23.5 45.9478 28.1457 49.6137 35.2684 51.887C33.6247 59.4567 34.3553 65.4791 37.5742 67.4072C38.3161 67.8595 39.1837 68.0737 40.1425 68.0737C43.2815 68.0737 47.3907 65.7409 51.5457 61.6942C55.7006 65.7171 59.8098 68.0261 62.9488 68.0261C63.9077 68.0261 64.7752 67.8119 65.5285 67.3596C68.736 65.4315 69.4552 59.4209 67.8 51.8751C74.8771 49.6018 79.5 45.9359 79.5 42.0797ZM64.6382 34.141C64.2159 35.6764 63.6908 37.2594 63.0972 38.8423C62.6292 37.8902 62.1384 36.938 61.6019 35.9858C61.0768 35.0337 60.5175 34.1053 59.9582 33.2008C61.5791 33.4507 63.1429 33.7602 64.6382 34.141ZM59.4103 46.8167C58.52 48.4235 57.6068 49.9469 56.6594 51.3633C54.9586 51.518 53.235 51.6013 51.5 51.6013C49.7764 51.6013 48.0528 51.518 46.3634 51.3752C45.416 49.9588 44.4914 48.4473 43.6011 46.8524C42.7336 45.2932 41.946 43.7103 41.2269 42.1154C41.9346 40.5205 42.7336 38.9256 43.5897 37.3665C44.48 35.7597 45.3932 34.2362 46.3406 32.8199C48.0414 32.6652 49.765 32.5819 51.5 32.5819C53.2236 32.5819 54.9472 32.6652 56.6366 32.808C57.584 34.2243 58.5086 35.7359 59.3989 37.3308C60.2664 38.8899 61.054 40.4729 61.7731 42.0678C61.054 43.6627 60.2664 45.2575 59.4103 46.8167ZM63.0972 45.2694C63.7136 46.8643 64.2387 48.4592 64.6724 50.0064C63.1771 50.3873 61.6019 50.7087 59.9696 50.9586C60.5289 50.0421 61.0883 49.1019 61.6133 48.1378C62.1384 47.1857 62.6292 46.2216 63.0972 45.2694ZM51.5228 57.9689C50.4613 56.8263 49.3997 55.5528 48.3496 54.1602C49.3769 54.2079 50.427 54.2436 51.4886 54.2436C52.5616 54.2436 53.6231 54.2198 54.6618 54.1602C53.6345 55.5528 52.573 56.8263 51.5228 57.9689ZM43.0304 50.9586C41.4095 50.7087 39.8457 50.3992 38.3504 50.0183C38.7727 48.483 39.2978 46.9 39.8914 45.317C40.3594 46.2692 40.8502 47.2214 41.3867 48.1735C41.9232 49.1257 42.4711 50.054 43.0304 50.9586ZM51.4658 26.1905C52.5273 27.3331 53.5889 28.6066 54.639 29.9991C53.6117 29.9515 52.5616 29.9158 51.5 29.9158C50.427 29.9158 49.3655 29.9396 48.3267 29.9991C49.3541 28.6066 50.4156 27.3331 51.4658 26.1905ZM43.019 33.2008C42.4596 34.1172 41.9003 35.0575 41.3753 36.0215C40.8502 36.9737 40.3594 37.9259 39.8914 38.878C39.275 37.2832 38.7499 35.6883 38.3161 34.141C39.8115 33.7721 41.3867 33.4507 43.019 33.2008ZM32.6888 48.1021C28.648 46.3049 26.034 43.9483 26.034 42.0797C26.034 40.2111 28.648 37.8426 32.6888 36.0572C33.6704 35.6169 34.7434 35.2241 35.8506 34.8551C36.5012 37.1879 37.3573 39.616 38.4189 42.1035C37.3687 44.5791 36.5241 46.9952 35.8848 49.3161C34.7548 48.9472 33.6818 48.5425 32.6888 48.1021ZM38.8298 65.1101C37.2774 64.1818 36.604 60.6469 37.129 56.1003C37.2546 54.9815 37.4601 53.8032 37.7112 52.6011C39.9484 53.1724 42.3912 53.6128 44.9594 53.8984C46.5004 56.1003 48.0985 58.0998 49.7079 59.8494C45.9868 63.4557 42.4939 65.4315 40.1196 65.4315C39.606 65.4196 39.1722 65.3125 38.8298 65.1101ZM65.9052 56.0408C66.4417 60.5873 65.7797 64.1223 64.2387 65.0625C63.8962 65.2767 63.4511 65.372 62.926 65.372C60.5632 65.372 57.0589 63.4081 53.3378 59.8256C54.9358 58.076 56.5338 56.0884 58.052 53.8865C60.6317 53.6009 63.0744 53.1605 65.3117 52.5773C65.5742 53.7794 65.7797 54.9339 65.9052 56.0408ZM70.2998 48.1021C69.3182 48.5425 68.2452 48.9353 67.138 49.3042C66.4874 46.9714 65.6313 44.5434 64.5697 42.0559C65.6199 39.5803 66.4645 37.1641 67.1038 34.8432C68.2338 35.2122 69.3068 35.6169 70.3113 36.0572C74.352 37.8545 76.966 40.2111 76.966 42.0797C76.9545 43.9483 74.3406 46.3168 70.2998 48.1021Z" fill="white"/>
<path d="M51.4884 47.5186C54.3694 47.5186 56.7049 45.0834 56.7049 42.0794C56.7049 39.0754 54.3694 36.6401 51.4884 36.6401C48.6075 36.6401 46.272 39.0754 46.272 42.0794C46.272 45.0834 48.6075 47.5186 51.4884 47.5186Z" fill="white"/>
</g>
<defs>
<filter id="filter0_dd_425_173" x="0.37904" y="0.0737305" width="102.242" height="102.242" filterUnits="userSpaceOnUse" color-interpolation-filters="sRGB">
<feFlood flood-opacity="0" result="BackgroundImageFix"/>
<feColorMatrix in="SourceAlpha" type="matrix" values="0 0 0 0 0 0 0 0 0 0 0 0 0 0 0 0 0 0 127 0" result="hardAlpha"/>
<feOffset dy="9.12096"/>
<feGaussianBlur stdDeviation="4.56048"/>
<feComposite in2="hardAlpha" operator="out"/>
<feColorMatrix type="matrix" values="0 0 0 0 0.027451 0 0 0 0 0.494118 0 0 0 0 0.854902 0 0 0 0.2 0"/>
<feBlend mode="normal" in2="BackgroundImageFix" result="effect1_dropShadow_425_173"/>
<feColorMatrix in="SourceAlpha" type="matrix" values="0 0 0 0 0 0 0 0 0 0 0 0 0 0 0 0 0 0 127 0" result="hardAlpha"/>
<feOffset dy="9.12096"/>
<feGaussianBlur stdDeviation="4.56048"/>
<feComposite in2="hardAlpha" operator="out"/>
<feColorMatrix type="matrix" values="0 0 0 0 0.0313726 0 0 0 0 0.639216 0 0 0 0 0.901961 0 0 0 0.1 0"/>
<feBlend mode="normal" in2="effect1_dropShadow_425_173" result="effect2_dropShadow_425_173"/>
<feBlend mode="normal" in="SourceGraphic" in2="effect2_dropShadow_425_173" result="shape"/>
</filter>
</defs>
</svg>
